# xmcd
#
# Track frame offsets: 
#        150
#        15584
#        30707
#        44709
#        59187
#        70828
#        83465
#        101356
#        116439
#        130997
#        144645
#        162323
#        177580
#        189396
#
# Disc length: 2950 seconds
#
# Revision: 0
# Processed by: cddbd v1.5.2PL0 Copyright (c) Steve Scherf et al.
# Submitted via: ExactAudioCopyFreeDBPlugin 1.0
#
DISCID=c40b840e
DTITLE=Pierre Perret - Le zizi
DYEAR=2011
DGENRE=Variété française
TTITLE0=Les majorettes
TTITLE1=Ma p'tite Julia
TTITLE2=L'infidèle
TTITLE3=Ne partez pas en vacances
TTITLE4=Marie
TTITLE5=Ay! si tu m'avais vu señor
TTITLE6=Donnez-nous des jardins
TTITLE7=Émilia
TTITLE8=À poil
TTITLE9=Çà y est les mecs
TTITLE10=Le zizi
TTITLE11=La photo
TTITLE12=Vaisselle cassée
TTITLE13=Totor
EXTD=Intégrale 1957 - 2011
EXTT0=
EXTT1=
EXTT2=
EXTT3=
EXTT4=
EXTT5=
EXTT6=
EXTT7=
EXTT8=
EXTT9=
EXTT10=
EXTT11=
EXTT12=
EXTT13=
PLAYORDER=
